<svg width="21" height="20" viewBox="0 0 21 20" fill="none" xmlns="http://www.w3.org/2000/svg">
<path d="M4.87158 19.7834C4.76998 19.7834 4.6677 19.7606 4.57163 19.715C4.33319 19.5996 4.18045 19.3584 4.18045 19.0923V15.6367H2.10707C0.963948 15.6367 0.0336914 14.7064 0.0336914 13.5633V2.50526C0.0336914 1.36214 0.963948 0.431885 2.10707 0.431885H18.6941C19.8372 0.431885 20.7675 1.36214 20.7675 2.50526V13.5633C20.7675 14.7064 19.8372 15.6367 18.6941 15.6367H10.2976L5.30353 19.6321C5.17844 19.7323 5.0257 19.7834 4.87158 19.7834ZM2.10707 1.81414C1.72557 1.81414 1.41594 2.12445 1.41594 2.50526V13.5633C1.41594 13.9441 1.72557 14.2544 2.10707 14.2544H4.87158C5.25377 14.2544 5.5627 14.5634 5.5627 14.9455V17.6548L9.62307 14.4058C9.74609 14.3076 9.89745 14.2544 10.055 14.2544H18.6941C19.0756 14.2544 19.3852 13.9441 19.3852 13.5633V2.50526C19.3852 2.12445 19.0756 1.81414 18.6941 1.81414H2.10707Z" fill="#213F50"/>
<path d="M15.9296 7.34319H4.87155C4.48935 7.34319 4.18042 7.03357 4.18042 6.65206C4.18042 6.27056 4.48935 5.96094 4.87155 5.96094H15.9296C16.3118 5.96094 16.6207 6.27056 16.6207 6.65206C16.6207 7.03357 16.3118 7.34319 15.9296 7.34319Z" fill="#213F50"/>
<path d="M10.4007 10.1076H4.87167C4.48948 10.1076 4.18054 9.79797 4.18054 9.41647C4.18054 9.03497 4.48948 8.72534 4.87167 8.72534H10.4007C10.7829 8.72534 11.0918 9.03497 11.0918 9.41647C11.0918 9.79797 10.7829 10.1076 10.4007 10.1076Z" fill="#213F50"/>
</svg>
